<!DOCTYPE svg PUBLIC "-//W3C//DTD SVG 1.1//EN" "https://www.w3.org/Graphics/SVG/1.1/DTD/svg11.dtd"><svg xmlns="http://www.w3.org/2000/svg" id="sfn-svg" class="sfn-workflow-graph" width="265" height="602">
    
    
<g transform="translate(12,21.279510498046875)"><g class="nodes"><g class="node-container" transform="translate(94.91320037841797,20.555556297302246)"><g class="node anchor"><circle class="shape" x="-19.83506965637207" y="-10.555556297302246" r="29.83506965637207"/><text class="label"><tspan xml:space="preserve" text-anchor="middle" alignment-baseline="central">Start</tspan></text></g></g><g class="node-container" transform="translate(94.91320037841797,543.333348274231)"><g class="node anchor"><circle class="shape" x="-15.21701431274414" y="-10.555556297302246" r="25.21701431274414"/><text class="label"><tspan xml:space="preserve" text-anchor="middle" alignment-baseline="central">End</tspan></text></g></g><g class="node-container" transform="translate(94.91320037841797,86.66666889190674)"><g class="node state Pass NotYetStarted"><rect class="shape" rx="5" ry="5" x="-27.33506965637207" y="-20.555556297302246" width="54.67013931274414" height="41.11111259460449"/><text class="label"><tspan xml:space="preserve" text-anchor="middle" alignment-baseline="central">Pass</tspan></text></g></g><g class="node-container" transform="translate(94.91320037841797,152.77778148651123)"><g class="node state Choice NotYetStarted"><rect class="shape" rx="5" ry="5" x="-94.91320037841797" y="-20.555556297302246" width="189.82640075683594" height="41.11111259460449"/><text class="label"><tspan xml:space="preserve" text-anchor="middle" alignment-baseline="central">IsHelloWorldExample</tspan></text></g></g><g class="node-container" transform="translate(34.865455627441406,414.1666774749756)"><g class="node state Fail NotYetStarted"><rect class="shape" rx="5" ry="5" x="-21.328125953674316" y="-20.555556297302246" width="42.65625190734863" height="41.11111259460449"/><text class="label"><tspan xml:space="preserve" text-anchor="middle" alignment-baseline="central">No</tspan></text></g></g><g class="node-container" transform="translate(154.96094512939453,218.88889408111572)"><g class="node state Pass NotYetStarted"><rect class="shape" rx="5" ry="5" x="-23.220486640930176" y="-20.555556297302246" width="46.44097328186035" height="41.11111259460449"/><text class="label"><tspan xml:space="preserve" text-anchor="middle" alignment-baseline="central">Yes</tspan></text></g></g><g class="node-container" transform="translate(154.96094512939453,285.0000066757202)"><g class="node state Wait NotYetStarted"><rect class="shape" rx="5" ry="5" x="-85.09548950195312" y="-20.555556297302246" width="170.19097900390625" height="41.11111259460449"/><text class="label"><tspan xml:space="preserve" text-anchor="middle" alignment-baseline="central">Wait three seconds</tspan></text></g></g><g class="node-container" transform="translate(154.96094512939453,414.1666774749756)"><g class="node state Parallel NotYetStarted Container" transform="translate(-53.880210876464844,-83.61111450195312)"><rect class="shape" rx="21.552084350585936" ry="21.552084350585936" x="0" y="0" width="107.76042175292969" height="167.22222900390625"/><g class="branches" transform="translate(20,40)"><g class="branch" transform="translate(0,0)"><g class="nodes"><g class="node-container" transform="translate(33.88020896911621,20.555556297302246)"><g class="node state Pass NotYetStarted"><rect class="shape" rx="5" ry="5" x="-30.98090362548828" y="-20.555556297302246" width="61.96180725097656" height="41.11111259460449"/><text class="label"><tspan xml:space="preserve" text-anchor="middle" alignment-baseline="central">Hello</tspan></text></g></g><g class="node-container" transform="translate(33.88020896911621,86.66666889190674)"><g class="node state Pass NotYetStarted"><rect class="shape" rx="5" ry="5" x="-33.88020896911621" y="-20.555556297302246" width="67.76041793823242" height="41.11111259460449"/><text class="label"><tspan xml:space="preserve" text-anchor="middle" alignment-baseline="central">World</tspan></text></g></g></g><g class="edges"><g class="edge"><path class="path" marker-end="url(#arrowhead983)" d="M33.88020896911621,41.11111259460449L33.880208969116204,43.19444592793782C33.88020896911621,45.27777926127116,33.88020896911621,49.44444592793782,33.880208969116204,53.61111259460449C33.88020896911621,57.77777926127116,33.88020896911621,61.94444592793782,33.880208969116204,64.02777926127115L33.88020896911621,66.11111259460449" style="fill: none;"/><defs><marker id="arrowhead983" viewBox="0 0 10 10" refX="9" refY="5" markerUnits="strokeWidth" markerWidth="8" markerHeight="6" orient="auto"><path d="M 0 0 L 10 5 L 0 10 z"/></marker></defs></g></g></g></g><path class="path" marker-end="url(#arrowhead984)" d="M53.880210876464844,0L53.88021087646483,3.333333333333333C53.88021087646484,6.666666666666666,53.88021087646484,13.333333333333332,53.880210558573395,16.666666666666664C53.88021024068196,20,53.880209604899086,20,53.880209287007645,23.33333333333333C53.88020896911621,26.666666666666664,53.88020896911621,33.33333333333333,53.88020896911621,36.666666666666664L53.88020896911621,40" style="fill: none;"/></g></g></g><g class="edges"><g class="edge"><path class="path" marker-end="url(#arrowhead985)" d="M94.91320037841797,107.22222518920898L94.91320037841797,109.30555852254231C94.91320037841797,111.38889185587564,94.91320037841797,115.55555852254231,94.91320037841797,119.72222518920898C94.91320037841797,123.88889185587564,94.91320037841797,128.0555585225423,94.91320037841797,130.13889185587564L94.91320037841797,132.22222518920898" style="fill: none;"/><defs><marker id="arrowhead985" viewBox="0 0 10 10" refX="9" refY="5" markerUnits="strokeWidth" markerWidth="8" markerHeight="6" orient="auto"><path d="M 0 0 L 10 5 L 0 10 z"/></marker></defs></g><g class="edge"><path class="path" marker-end="url(#arrowhead986)" d="M94.91320037841797,50.390625953674316L94.91320037841797,50.927373727162674C94.91320037841797,51.46412150065104,94.91320037841797,52.53761704762776,94.91320037841797,55.15769815444946C94.91320037841797,57.77777926127116,94.91320037841797,61.94444592793782,94.91320037841797,64.02777926127115L94.91320037841797,66.11111259460449" style="fill: none;"/><defs><marker id="arrowhead986" viewBox="0 0 10 10" refX="9" refY="5" markerUnits="strokeWidth" markerWidth="8" markerHeight="6" orient="auto"><path d="M 0 0 L 10 5 L 0 10 z"/></marker></defs></g><g class="edge"><path class="path" marker-end="url(#arrowhead987)" d="M57.57258548592348,173.33333778381348L53.78806384284314,175.4166711171468C50.00354219976279,177.50000445048013,42.4344989136021,181.6666711171468,38.64997727052175,189.25926383336383C34.865455627441406,196.85185654958087,34.865455627441406,207.87037531534827,34.865455627441406,218.8888940811157C34.865455627441406,229.90741284688312,34.865455627441406,240.92593161265054,34.865455627441406,251.94445037841794C34.865455627441406,262.96296914418537,34.865455627441406,273.98148790995276,34.865455627441406,285.0000066757202C34.865455627441406,296.0185254414876,34.865455627441406,307.037044207255,34.865455627441406,325.1388966242472C34.865455627441406,343.2407490412394,34.865455627441406,368.4259351094563,34.865455627441406,381.0185281435648L34.865455627441406,393.61112117767334" style="fill: none;"/><defs><marker id="arrowhead987" viewBox="0 0 10 10" refX="9" refY="5" markerUnits="strokeWidth" markerWidth="8" markerHeight="6" orient="auto"><path d="M 0 0 L 10 5 L 0 10 z"/></marker></defs></g><g class="edge"><path class="path" marker-end="url(#arrowhead988)" d="M132.25381527091247,173.33333778381348L136.0383369139928,175.4166711171468C139.82285855707315,177.50000445048013,147.39190184323382,181.6666711171468,151.17642348631418,185.83333778381348C154.96094512939453,190.00000445048013,154.96094512939453,194.1666711171468,154.96094512939453,196.25000445048013L154.96094512939453,198.33333778381348" style="fill: none;"/><defs><marker id="arrowhead988" viewBox="0 0 10 10" refX="9" refY="5" markerUnits="strokeWidth" markerWidth="8" markerHeight="6" orient="auto"><path d="M 0 0 L 10 5 L 0 10 z"/></marker></defs></g><g class="edge"><path class="path" marker-end="url(#arrowhead989)" d="M34.865455627441406,434.72223377227783L34.865455627441406,447.31482680638624C34.865455627441406,459.90741984049475,34.865455627441406,485.0926059087117,41.19158035236552,501.16765399347526C47.51770507728964,517.2427020782388,60.169954527137875,524.207612179549,66.49607925206199,527.6900672302039L72.82220397698612,531.1725222808591" style="fill: none;"/><defs><marker id="arrowhead989" viewBox="0 0 10 10" refX="9" refY="5" markerUnits="strokeWidth" markerWidth="8" markerHeight="6" orient="auto"><path d="M 0 0 L 10 5 L 0 10 z"/></marker></defs></g><g class="edge"><path class="path" marker-end="url(#arrowhead990)" d="M154.96094512939453,239.44445037841797L154.96094512939453,241.52778371175128C154.96094512939453,243.61111704508463,154.96094512939453,247.77778371175128,154.96094512939453,251.94445037841797C154.96094512939453,256.1111170450846,154.96094512939453,260.2777837117513,154.96094512939453,262.3611170450846L154.96094512939453,264.44445037841797" style="fill: none;"/><defs><marker id="arrowhead990" viewBox="0 0 10 10" refX="9" refY="5" markerUnits="strokeWidth" markerWidth="8" markerHeight="6" orient="auto"><path d="M 0 0 L 10 5 L 0 10 z"/></marker></defs></g><g class="edge"><path class="path" marker-end="url(#arrowhead991)" d="M154.96094512939453,305.55556297302246L154.96094512939453,307.6388963063558C154.96094512939453,309.7222296396891,154.96094512939453,313.8888963063558,154.96094512939453,318.05556297302246C154.96094512939453,322.2222296396891,154.96094512939453,326.3888963063558,154.96094512939453,328.47222963968915L154.96094512939453,330.55556297302246" style="fill: none;"/><defs><marker id="arrowhead991" viewBox="0 0 10 10" refX="9" refY="5" markerUnits="strokeWidth" markerWidth="8" markerHeight="6" orient="auto"><path d="M 0 0 L 10 5 L 0 10 z"/></marker></defs></g><g class="edge"><path class="path" marker-end="url(#arrowhead992)" d="M154.96094512939453,497.7777919769287L154.96094512939453,499.86112531026197C154.96094512939453,501.94445864359534,154.96094512939453,506.11112531026197,148.63482040447042,511.6769136942504C142.3086956795463,517.2427020782388,129.65644622969805,524.207612179549,123.33032150477393,527.6900672302039L117.00419677984982,531.1725222808591" style="fill: none;"/><defs><marker id="arrowhead992" viewBox="0 0 10 10" refX="9" refY="5" markerUnits="strokeWidth" markerWidth="8" markerHeight="6" orient="auto"><path d="M 0 0 L 10 5 L 0 10 z"/></marker></defs></g></g></g><style xmlns="http://www.w3.org/1999/xhtml">.node &gt; .shape {stroke: #555555;stroke-width: 0.6px;fill: #FFFFFF;} path {stroke: #555;background-color: #555;stroke-width: 1px;} .node.state.NotYetStarted &gt; .shape,.node.state.Container &gt; .shape {stroke-dasharray: 5 2;} .node.state.Failed &gt; .shape,rect.legend.Failed {fill: #DE322F;} .node.state.CaughtError &gt; .shape,rect.legend.CaughtError {fill: #FFA500;} .node.state.Succeeded &gt; .shape,rect.legend.Succeeded {fill: #2BD62E;} .node.state.InProgress &gt; .shape,rect.legend.InProgress {fill: #53c9ed;} .node.state.Cancelled &gt; .shape,rect.legend.Cancelled {fill: #dddddd;} .node.anchor &gt; .shape {fill: #FFDA75;} .node.state.hovered:not(.selected):not(.NotYetStarted) &gt; .shape,.node.selected &gt; .shape {stroke: #555555;stroke-width: 2px;} .node.state.Container.Failed &gt; .shape {fill: #EE9592;} .node.state.Container.CaughtError &gt; .shape {fill: #FFD27F;} .node.state.Container.Succeeded &gt; .shape {fill: #91EA9A;} .node.state.Container.InProgress &gt; .shape {fill :#A9E4F7;} .node.state.Container.Cancelled &gt; .shape {fill: #EEEEEE;} marker {fill: #555555;} .node.anchor,.node.state.NotYetStarted {cursor: default;} .node.state {cursor: pointer;} tspan .label {font-weight: normal;font-size: 12px;text-shadow: none;} </style></svg>