<!DOCTYPE svg PUBLIC "-//W3C//DTD SVG 1.1//EN" "https://www.w3.org/Graphics/SVG/1.1/DTD/svg11.dtd"><svg xmlns="http://www.w3.org/2000/svg" id="sfn-svg" class="sfn-workflow-graph" width="297" height="536">
    
    
<g transform="translate(11.999998092651367,21.279510498046875)"><g class="nodes"><g class="node-container" transform="translate(99.42274618148804,20.555556297302246)"><g class="node anchor"><circle class="shape" x="-19.83506965637207" y="-10.555556297302246" r="29.83506965637207"/><text class="label"><tspan xml:space="preserve" text-anchor="middle" alignment-baseline="central">Start</tspan></text></g></g><g class="node-container" transform="translate(99.42274618148804,477.22222995758057)"><g class="node anchor"><circle class="shape" x="-15.21701431274414" y="-10.555556297302246" r="25.21701431274414"/><text class="label"><tspan xml:space="preserve" text-anchor="middle" alignment-baseline="central">End</tspan></text></g></g><g class="node-container" transform="translate(99.42274618148804,86.66666889190674)"><g class="node state Pass NotYetStarted"><rect class="shape" rx="5" ry="5" x="-27.33506965637207" y="-20.555556297302246" width="54.67013931274414" height="41.11111259460449"/><text class="label"><tspan xml:space="preserve" text-anchor="middle" alignment-baseline="central">Pass</tspan></text></g></g><g class="node-container" transform="translate(99.42274618148804,152.77778148651123)"><g class="node state Choice NotYetStarted"><rect class="shape" rx="5" ry="5" x="-93.77604675292969" y="-20.555556297302246" width="187.55209350585938" height="41.11111259460449"/><text class="label"><tspan xml:space="preserve" text-anchor="middle" alignment-baseline="central">IshelloWorldExample</tspan></text></g></g><g class="node-container" transform="translate(21.328125953674316,381.1111183166504)"><g class="node state Fail NotYetStarted"><rect class="shape" rx="5" ry="5" x="-21.328125953674316" y="-20.555556297302246" width="42.65625190734863" height="41.11111259460449"/><text class="label"><tspan xml:space="preserve" text-anchor="middle" alignment-baseline="central">No</tspan></text></g></g><g class="node-container" transform="translate(177.51736640930176,218.88889408111572)"><g class="node state Pass NotYetStarted"><rect class="shape" rx="5" ry="5" x="-23.220486640930176" y="-20.555556297302246" width="46.44097328186035" height="41.11111259460449"/><text class="label"><tspan xml:space="preserve" text-anchor="middle" alignment-baseline="central">Yes</tspan></text></g></g><g class="node-container" transform="translate(177.51736640930176,285.0000066757202)"><g class="node state Wait NotYetStarted"><rect class="shape" rx="5" ry="5" x="-85.09548950195312" y="-20.555556297302246" width="170.19097900390625" height="41.11111259460449"/><text class="label"><tspan xml:space="preserve" text-anchor="middle" alignment-baseline="central">Wait three seconds</tspan></text></g></g><g class="node-container" transform="translate(177.51736640930176,381.1111183166504)"><g class="node state Parallel NotYetStarted Container" transform="translate(-94.86111450195312,-50.55555534362793)"><rect class="shape" rx="20.222222137451173" ry="20.222222137451173" x="0" y="0" width="189.72222900390625" height="101.11111068725586"/><g class="branches" transform="translate(20,40)"><g class="branch" transform="translate(0,0)"><g class="nodes"><g class="node-container" transform="translate(30.98090362548828,20.555556297302246)"><g class="node state Pass NotYetStarted"><rect class="shape" rx="5" ry="5" x="-30.98090362548828" y="-20.555556297302246" width="61.96180725097656" height="41.11111259460449"/><text class="label"><tspan xml:space="preserve" text-anchor="middle" alignment-baseline="central">Hello</tspan></text></g></g></g><g class="edges"/></g><g class="branch" transform="translate(81.96180725097656,0)"><g class="nodes"><g class="node-container" transform="translate(33.88020896911621,20.555556297302246)"><g class="node state Pass NotYetStarted"><rect class="shape" rx="5" ry="5" x="-33.88020896911621" y="-20.555556297302246" width="67.76041793823242" height="41.11111259460449"/><text class="label"><tspan xml:space="preserve" text-anchor="middle" alignment-baseline="central">World</tspan></text></g></g></g><g class="edges"/></g></g><path class="path" marker-end="url(#arrowhead507)" d="M94.86111450195312,0L94.86111450195311,3.333333333333333C94.86111450195312,6.666666666666666,94.86111450195312,13.333333333333332,87.54774602254231,16.666666666666664C80.2343775431315,20,65.60764058430989,20,58.294272104899086,23.33333333333333C50.98090362548828,26.666666666666664,50.98090362548828,33.33333333333333,50.980903625488274,36.666666666666664L50.98090362548828,40" style="fill: none;"/><path class="path" marker-end="url(#arrowhead508)" d="M94.86111450195312,0L94.86111450195311,3.333333333333333C94.86111450195312,6.666666666666666,94.86111450195312,13.333333333333332,101.69126478830972,16.666666666666664C108.52141507466634,20,122.18171564737955,20,129.01186593373615,23.33333333333333C135.84201622009277,26.666666666666664,135.84201622009277,33.33333333333333,135.84201622009277,36.666666666666664L135.84201622009277,40" style="fill: none;"/></g></g></g><g class="edges"><g class="edge"><path class="path" marker-end="url(#arrowhead509)" d="M99.42274618148804,107.22222518920898L99.42274618148804,109.30555852254231C99.42274618148804,111.38889185587564,99.42274618148804,115.55555852254231,99.42274618148804,119.72222518920898C99.42274618148804,123.88889185587564,99.42274618148804,128.0555585225423,99.42274618148804,130.13889185587564L99.42274618148804,132.22222518920898" style="fill: none;"/><defs><marker id="arrowhead509" viewBox="0 0 10 10" refX="9" refY="5" markerUnits="strokeWidth" markerWidth="8" markerHeight="6" orient="auto"><path d="M 0 0 L 10 5 L 0 10 z"/></marker></defs></g><g class="edge"><path class="path" marker-end="url(#arrowhead510)" d="M99.42274618148804,50.390625953674316L99.42274618148804,50.927373727162674C99.42274618148804,51.46412150065104,99.42274618148804,52.53761704762776,99.42274618148804,55.15769815444946C99.42274618148804,57.77777926127116,99.42274618148804,61.94444592793782,99.42274618148804,64.02777926127115L99.42274618148804,66.11111259460449" style="fill: none;"/><defs><marker id="arrowhead510" viewBox="0 0 10 10" refX="9" refY="5" markerUnits="strokeWidth" markerWidth="8" markerHeight="6" orient="auto"><path d="M 0 0 L 10 5 L 0 10 z"/></marker></defs></g><g class="edge"><path class="path" marker-end="url(#arrowhead511)" d="M50.859704368748226,173.33333778381348L45.93777463290257,175.4166711171468C41.01584489705692,177.50000445048013,31.17198542536562,181.6666711171468,26.250055689519968,189.25926383336383C21.328125953674316,196.85185654958087,21.328125953674316,207.87037531534827,21.328125953674316,218.8888940811157C21.328125953674316,229.90741284688312,21.328125953674316,240.92593161265054,21.328125953674316,251.94445037841794C21.328125953674316,262.96296914418537,21.328125953674316,273.98148790995276,21.328125953674316,285.0000066757202C21.328125953674316,296.0185254414876,21.328125953674316,307.037044207255,21.328125953674316,319.62963676452637C21.328125953674316,332.22222932179767,21.328125953674316,346.3888956705729,21.328125953674316,353.4722288449605L21.328125953674316,360.55556201934814" style="fill: none;"/><defs><marker id="arrowhead511" viewBox="0 0 10 10" refX="9" refY="5" markerUnits="strokeWidth" markerWidth="8" markerHeight="6" orient="auto"><path d="M 0 0 L 10 5 L 0 10 z"/></marker></defs></g><g class="edge"><path class="path" marker-end="url(#arrowhead512)" d="M147.98578799422785,173.33333778381348L152.9077177300735,175.4166711171468C157.82964746591915,177.50000445048013,167.67350693761045,181.6666711171468,172.5954366734561,185.83333778381348C177.51736640930176,190.00000445048013,177.51736640930176,194.1666711171468,177.51736640930176,196.25000445048013L177.51736640930176,198.33333778381348" style="fill: none;"/><defs><marker id="arrowhead512" viewBox="0 0 10 10" refX="9" refY="5" markerUnits="strokeWidth" markerWidth="8" markerHeight="6" orient="auto"><path d="M 0 0 L 10 5 L 0 10 z"/></marker></defs></g><g class="edge"><path class="path" marker-end="url(#arrowhead513)" d="M21.328125953674316,401.66667461395264L21.328125953674316,408.75000778834016C21.328125953674316,415.8333409627278,21.328125953674316,430.00000731150305,30.47349808673941,440.954354424142C39.618870219804506,451.908701536781,57.909614485934696,459.65072941328367,67.05498661899979,463.52174335153506L76.20035875206489,467.3927572897864" style="fill: none;"/><defs><marker id="arrowhead513" viewBox="0 0 10 10" refX="9" refY="5" markerUnits="strokeWidth" markerWidth="8" markerHeight="6" orient="auto"><path d="M 0 0 L 10 5 L 0 10 z"/></marker></defs></g><g class="edge"><path class="path" marker-end="url(#arrowhead514)" d="M177.51736640930176,239.44445037841797L177.51736640930176,241.52778371175128C177.51736640930176,243.61111704508463,177.51736640930176,247.77778371175128,177.51736640930176,251.94445037841797C177.51736640930176,256.1111170450846,177.51736640930176,260.2777837117513,177.51736640930176,262.3611170450846L177.51736640930176,264.44445037841797" style="fill: none;"/><defs><marker id="arrowhead514" viewBox="0 0 10 10" refX="9" refY="5" markerUnits="strokeWidth" markerWidth="8" markerHeight="6" orient="auto"><path d="M 0 0 L 10 5 L 0 10 z"/></marker></defs></g><g class="edge"><path class="path" marker-end="url(#arrowhead515)" d="M177.51736640930176,305.55556297302246L177.51736640930176,307.6388963063558C177.51736640930176,309.7222296396891,177.51736640930176,313.8888963063558,177.51736640930176,318.05556297302246C177.51736640930176,322.2222296396891,177.51736640930176,326.3888963063558,177.51736640930176,328.47222963968915L177.51736640930176,330.55556297302246" style="fill: none;"/><defs><marker id="arrowhead515" viewBox="0 0 10 10" refX="9" refY="5" markerUnits="strokeWidth" markerWidth="8" markerHeight="6" orient="auto"><path d="M 0 0 L 10 5 L 0 10 z"/></marker></defs></g><g class="edge"><path class="path" marker-end="url(#arrowhead516)" d="M177.51736640930176,431.6666736602783L177.51736640930176,433.75000699361163C177.51736640930176,435.83334032694495,177.51736640930176,440.00000699361163,168.37199427623665,445.95435426519634C159.22662214317157,451.908701536781,140.93587787704138,459.65072941328367,131.79050574397627,463.52174335153506L122.64513361091119,467.3927572897864" style="fill: none;"/><defs><marker id="arrowhead516" viewBox="0 0 10 10" refX="9" refY="5" markerUnits="strokeWidth" markerWidth="8" markerHeight="6" orient="auto"><path d="M 0 0 L 10 5 L 0 10 z"/></marker></defs></g></g></g><style xmlns="http://www.w3.org/1999/xhtml">.node &gt; .shape {stroke: #555555;stroke-width: 0.6px;fill: #FFFFFF;} path {stroke: #555;background-color: #555;stroke-width: 1px;} .node.state.NotYetStarted &gt; .shape,.node.state.Container &gt; .shape {stroke-dasharray: 5 2;} .node.state.Failed &gt; .shape,rect.legend.Failed {fill: #DE322F;} .node.state.CaughtError &gt; .shape,rect.legend.CaughtError {fill: #FFA500;} .node.state.Succeeded &gt; .shape,rect.legend.Succeeded {fill: #2BD62E;} .node.state.InProgress &gt; .shape,rect.legend.InProgress {fill: #53c9ed;} .node.state.Cancelled &gt; .shape,rect.legend.Cancelled {fill: #dddddd;} .node.anchor &gt; .shape {fill: #FFDA75;} .node.state.hovered:not(.selected):not(.NotYetStarted) &gt; .shape,.node.selected &gt; .shape {stroke: #555555;stroke-width: 2px;} .node.state.Container.Failed &gt; .shape {fill: #EE9592;} .node.state.Container.CaughtError &gt; .shape {fill: #FFD27F;} .node.state.Container.Succeeded &gt; .shape {fill: #91EA9A;} .node.state.Container.InProgress &gt; .shape {fill :#A9E4F7;} .node.state.Container.Cancelled &gt; .shape {fill: #EEEEEE;} marker {fill: #555555;} .node.anchor,.node.state.NotYetStarted {cursor: default;} .node.state {cursor: pointer;} tspan .label {font-weight: normal;font-size: 12px;text-shadow: none;} </style></svg>